<svg width="21" height="21" viewBox="0 0 21 21" fill="none" xmlns="http://www.w3.org/2000/svg">
<path d="M17.1896 13.8408C17.1745 13.8223 17.1554 13.8073 17.1338 13.7971C17.1121 13.7868 17.0885 13.7815 17.0646 13.7815C17.0406 13.7815 17.017 13.7868 16.9953 13.7971C16.9737 13.8073 16.9546 13.8223 16.9395 13.8408C16.5088 14.3494 15.0938 15.7501 15.0938 17.0261C15.0938 18.1335 15.9756 19.0313 17.0625 19.0313C18.1494 19.0313 19.0313 18.129 19.0313 17.0261C19.0313 15.7501 17.6244 14.3494 17.1896 13.8408Z" stroke="black" stroke-miterlimit="10"/>
<path d="M15.873 11.8085L6.38243 2.39376C6.24525 2.25611 6.08225 2.14689 5.90277 2.07236C5.72329 1.99784 5.53086 1.95947 5.33653 1.95947C5.14219 1.95947 4.94977 1.99784 4.77029 2.07236C4.59081 2.14689 4.42781 2.25611 4.29063 2.39376L4.0794 2.60499C3.94174 2.74217 3.83252 2.90517 3.758 3.08465C3.68347 3.26413 3.64511 3.45655 3.64511 3.65089C3.64511 3.84523 3.68347 4.03765 3.758 4.21713C3.83252 4.39661 3.94174 4.55961 4.0794 4.69679L6.24871 6.86611L8.5866 4.52822L2.31039 10.7954C2.20206 10.9031 2.11631 11.0314 2.05818 11.1727C2.00004 11.314 1.97069 11.4655 1.97183 11.6183C1.97298 11.7711 2.0046 11.9221 2.06485 12.0625C2.1251 12.2029 2.21276 12.3299 2.3227 12.436L7.70395 17.604C7.91883 17.8097 8.20504 17.9242 8.50253 17.9235C8.80001 17.9227 9.08564 17.8067 9.29946 17.5999C10.8498 16.0987 14.1516 12.9036 14.4961 12.5591C14.734 12.3212 15.2426 12.2679 15.6733 12.2679H15.6856C15.7388 12.2679 15.7909 12.2521 15.8351 12.2224C15.8793 12.1927 15.9137 12.1505 15.9338 12.1012C15.9539 12.0519 15.9589 11.9977 15.9481 11.9456C15.9372 11.8934 15.9111 11.8457 15.873 11.8085Z" stroke="black" stroke-miterlimit="10"/>
</svg>
