<svg width="25" height="25" viewBox="0 0 25 25" fill="none" xmlns="http://www.w3.org/2000/svg">
<path d="M12.5 13.5417C13.0753 13.5417 13.5416 13.0753 13.5416 12.5C13.5416 11.9247 13.0753 11.4584 12.5 11.4584C11.9247 11.4584 11.4583 11.9247 11.4583 12.5C11.4583 13.0753 11.9247 13.5417 12.5 13.5417Z" stroke="black" stroke-width="2" stroke-linecap="round" stroke-linejoin="round"/>
<path d="M19.7917 13.5417C20.367 13.5417 20.8333 13.0753 20.8333 12.5C20.8333 11.9247 20.367 11.4584 19.7917 11.4584C19.2164 11.4584 18.75 11.9247 18.75 12.5C18.75 13.0753 19.2164 13.5417 19.7917 13.5417Z" stroke="black" stroke-width="2" stroke-linecap="round" stroke-linejoin="round"/>
<path d="M5.20835 13.5417C5.78365 13.5417 6.25002 13.0753 6.25002 12.5C6.25002 11.9247 5.78365 11.4584 5.20835 11.4584C4.63306 11.4584 4.16669 11.9247 4.16669 12.5C4.16669 13.0753 4.63306 13.5417 5.20835 13.5417Z" stroke="black" stroke-width="2" stroke-linecap="round" stroke-linejoin="round"/>
</svg>
